<?xml version="1.0" encoding="utf-8"?>
<!-- Generator: Adobe Illustrator 17.0.0, SVG Export Plug-In . SVG Version: 6.00 Build 0)  -->
<!DOCTYPE svg PUBLIC "-//W3C//DTD SVG 1.1//EN" "http://www.w3.org/Graphics/SVG/1.1/DTD/svg11.dtd">
<svg version="1.1" id="Layer_1" xmlns="http://www.w3.org/2000/svg" xmlns:xlink="http://www.w3.org/1999/xlink" x="0px" y="0px"
	 width="400px" height="118.519px" viewBox="-132.5 -39.259 400 118.519" enable-background="new -132.5 -39.259 400 118.519"
	 xml:space="preserve">
<g>
	<path fill="#FFFFFF" d="M22.823-11.876c-2.274,0-3.731,2.127-3.731,5.101c0,2.917,1.487,5.044,3.701,5.044s3.701-2.274,3.701-5.104
		C26.494-9.719,25.037-11.876,22.823-11.876z"/>
	<path fill="#FFFFFF" d="M123.452-11.729c-2.334,0-3.761,2.07-3.761,4.984c0,2.857,1.481,4.813,3.698,4.813
		c1.98,0,3.38-1.721,3.38-3.761v-2.361C126.769-10.037,125.456-11.729,123.452-11.729z"/>
	<path fill="#FFFFFF" d="M45.055,30.251c-1.58,0-3.016,0.529-4.299,1.571c-1.286,1.052-2.127,2.425-2.521,4.125
		c-0.198,0.793-0.297,1.439-0.297,1.95v4.81c0,2.094,0.643,3.864,1.929,5.312c1.286,1.442,2.956,2.166,5.011,2.166
		c2.412,0,4.29-0.934,5.633-2.788c1.346-1.86,2.019-4.311,2.019-7.357c0-2.806-0.631-5.119-1.899-6.943
		C49.246,31.2,47.386,30.251,45.055,30.251z"/>
	<path fill="#FFFFFF" d="M89.96-11.876c-2.274,0-3.731,2.127-3.731,5.101c0,2.917,1.49,5.044,3.698,5.044
		c2.217,0,3.701-2.274,3.701-5.104C93.632-9.719,92.177-11.876,89.96-11.876z"/>
	<path fill="#FFFFFF" d="M149.99-1.73c2.217,0,3.701-2.274,3.701-5.104c0.006-2.884-1.451-5.041-3.671-5.041
		c-2.271,0-3.728,2.127-3.728,5.101C146.291-3.857,147.778-1.73,149.99-1.73z"/>
	<path fill="#FFFFFF" d="M108.878-4.587v-2.187c-3.497,0-5.251,0.847-5.251,2.857c0,1.487,0.904,2.214,2.16,2.214
		C107.388-1.703,108.878-2.926,108.878-4.587z"/>
	<path fill="#FFFFFF" d="M8.931,19.931h-0.12c-0.397,1.7-1.031,4.212-1.899,7.532l-3.323,10.44h10.738l-3.38-10.44
		C10.589,26.396,9.916,23.885,8.931,19.931z"/>
	<path fill="#FFFFFF" d="M168.199,29.833c-2.566,0-4.534,1.145-5.873,3.434c-1.148,1.896-1.718,4.2-1.718,6.922
		c0,2.644,0.571,4.915,1.718,6.805c1.385,2.289,3.317,3.434,5.819,3.434c2.449,0,4.368-1.169,5.756-3.491
		c1.178-1.941,1.77-4.221,1.77-6.868c0-2.641-0.571-4.906-1.715-6.802C172.612,30.978,170.689,29.833,168.199,29.833z"/>
	<path fill="#FFFFFF" d="M267.458-25.879c0-6.354-5.146-11.521-11.518-11.521h-376.945c-6.366,0-11.534,5.167-11.534,11.521v91.761
		c0,6.357,5.167,11.507,11.534,11.507h376.948c6.369,0,11.518-5.15,11.518-11.507L267.458-25.879z M223.036-14.207
		c3.62,0,5.891,2.683,5.891,6.736c0.009,0.553-0.018,1.049-0.108,1.427h-9.448c0.06,2.683,1.836,4.197,4.464,4.197
		c1.397,0,2.683-0.234,3.818-0.67l0.49,2.187c-1.34,0.583-2.917,0.874-4.753,0.874c-4.431,0-7.054-2.8-7.054-7.141
		C216.337-10.941,219.023-14.207,223.036-14.207z M164.239-13.889l0.147,2.187h0.087c0.844-1.514,2.566-2.478,4.488-2.478
		c2.974,0,4.93,2.274,4.93,5.975v8.487h-3.152v-8.136c0-2.506-0.961-3.761-2.857-3.761c-1.866,0-3.146,1.604-3.146,3.47v8.427
		h-3.152V-9.836c0-1.253-0.03-2.596-0.117-4.053H164.239z M150.137-14.177c4.083,0,6.823,2.944,6.823,7.261
		c0.003,4.428-2.824,7.52-7.057,7.52c-4.137,0-6.82-3.091-6.82-7.288C143.083-11.059,145.822-14.177,150.137-14.177z M75.212-20.387
		h3.152v20.67h-3.152V-20.387z M36.075-13.886l1.604,6.736c0.379,1.604,0.697,3.119,0.961,4.549h0.06
		c0.231-1.193,0.61-2.683,1.166-4.519l2.013-6.763h2.566l1.926,6.619c0.466,1.604,0.844,3.179,1.139,4.666h0.084
		c0.204-1.457,0.526-3.004,0.961-4.666l1.721-6.619l3.091-0.003L48.936,0.283h-2.887L44.214-5.87
		c-0.466-1.544-0.844-3.061-1.139-4.576h-0.06c-0.231,1.544-0.67,3.091-1.136,4.576l-1.953,6.153h-2.917l-4.17-14.168H36.075z
		 M-3.991-19.107c1.662-0.261,3.467-0.409,5.423-0.409c7.346,0,10.729,3.614,10.729,9.506c0,6.796-3.996,10.467-11.546,10.467
		c-1.782,0-3.323-0.087-4.606-0.234V-19.107z M-61.679-15.556c2.737-3.212,7.49-5.672,11.29-5.84
		c0.499,4.534-1.298,9.001-3.924,12.285c-2.74,3.233-7.123,5.705-11.392,5.387C-66.264-8.087-64.101-12.726-61.679-15.556z
		 M-39.769,45.732c-3.148,4.708-6.447,9.313-11.687,9.395c-5.089,0.117-6.802-2.992-12.639-2.992c-5.891,0-7.715,2.911-12.597,3.109
		c-4.99,0.183-8.803-5.023-12.065-9.692c-6.522-9.527-11.6-26.846-4.792-38.632c3.299-5.78,9.313-9.503,15.743-9.602
		c4.996-0.102,9.632,3.374,12.702,3.374c3.01,0,8.742-4.158,14.652-3.536c2.473,0.072,9.509,0.976,14.048,7.595
		c-0.366,0.219-8.382,4.93-8.295,14.613c0.102,11.603,10.155,15.442,10.275,15.484C-34.484,35.118-35.999,40.387-39.769,45.732z
		 M19.191,54.574L15.453,42.83H2.463l-3.56,11.744H-7.74L5.134,14.592h7.949l12.93,39.982H19.191z M22.703,0.604
		c-4.14,0-6.823-3.091-6.823-7.288c0-4.374,2.74-7.493,7.057-7.493c4.08,0,6.823,2.944,6.823,7.261
		C29.76-2.487,26.933,0.604,22.703,0.604z M55.059,51.428c-2.385,2.533-5.351,3.798-8.887,3.798c-3.818,0-6.564-1.361-8.232-4.089
		v15.127h-6.405V35.22c0-3.079-0.081-6.237-0.237-9.476h5.633l0.358,4.57h0.12c2.136-3.443,5.378-5.164,9.728-5.164
		c3.401,0,6.24,1.343,8.511,4.032c2.268,2.695,3.407,6.234,3.407,10.623C59.055,44.707,57.724,48.583,55.059,51.428z M60.527-8.144
		v8.427h-3.148V-9.836c0-1.253-0.03-2.596-0.117-4.053h2.77l0.147,2.187h0.087c0.847-1.514,2.566-2.475,4.491-2.475
		c2.974,0,4.927,2.274,4.927,5.976l-0.003,8.484h-3.149v-8.136c0-2.506-0.961-3.761-2.857-3.761
		C61.81-11.614,60.527-10.01,60.527-8.144z M88.218,51.428c-2.388,2.533-5.351,3.798-8.89,3.798c-3.818,0-6.564-1.361-8.232-4.089
		v15.127h-6.405V35.22c0-3.079-0.081-6.237-0.237-9.476h5.633l0.357,4.57h0.12c2.133-3.443,5.375-5.164,9.728-5.164
		c3.398,0,6.237,1.343,8.514,4.032c2.265,2.695,3.407,6.234,3.407,10.623C92.214,44.707,90.883,48.583,88.218,51.428z M89.843,0.604
		c-4.137,0-6.823-3.091-6.823-7.288c0-4.374,2.74-7.493,7.054-7.493c4.083,0,6.823,2.944,6.823,7.261
		C96.9-2.487,94.07,0.604,89.843,0.604z M100.514-3.566c0-3.497,3.031-5.306,8.28-5.306v-0.261c0-1.866-0.988-2.8-2.941-2.8
		c-1.397,0-2.623,0.352-3.701,1.051l-0.64-2.07c1.31-0.817,2.944-1.226,4.864-1.226c3.701,0,5.57,1.953,5.57,5.861v5.218
		c0,1.43,0.063,2.539,0.204,3.383l-2.839-0.003l-0.228-1.631h-0.084c-0.961,1.313-2.364,1.953-4.143,1.953
		C102.317,0.604,100.514-1.174,100.514-3.566z M125.733,51.665c-2.602,2.331-6.234,3.5-10.891,3.5
		c-4.302,0-7.751-0.829-10.353-2.491l1.481-5.339c2.809,1.664,5.895,2.494,9.253,2.494c2.416,0,4.293-0.547,5.633-1.631
		c1.343-1.088,2.022-2.542,2.022-4.356c0-1.625-0.562-2.986-1.664-4.095c-1.109-1.106-2.941-2.136-5.516-3.082
		c-7-2.611-10.503-6.429-10.503-11.452c0-3.281,1.238-5.967,3.707-8.067c2.47-2.097,5.744-3.146,9.818-3.146
		c3.638,0,6.669,0.634,9.076,1.899l-1.607,5.222c-2.265-1.226-4.822-1.839-7.682-1.839c-2.259,0-4.032,0.556-5.3,1.661
		c-1.066,0.988-1.607,2.193-1.607,3.623c0,1.577,0.616,2.887,1.842,3.915c1.064,0.946,3.004,1.977,5.81,3.082
		c3.443,1.388,5.973,3.004,7.592,4.861c1.631,1.857,2.442,4.173,2.442,6.934C129.287,46.762,128.097,49.529,125.733,51.665z
		 M127.235,0.283l-0.147-2.274H127c-0.904,1.718-2.425,2.596-4.548,2.596c-3.416,0-5.946-3.004-5.946-7.231
		c0-4.431,2.623-7.553,6.204-7.553c1.896,0,3.239,0.64,3.996,1.926h0.063v-8.133h3.152v16.851c0,1.37,0.033,2.653,0.117,3.818
		H127.235z M150.518,30.551h-7.06v13.997c0,3.56,1.244,5.336,3.737,5.336c1.145,0,2.094-0.096,2.845-0.297l0.177,4.864
		c-1.262,0.472-2.923,0.709-4.981,0.709c-2.53,0-4.506-0.772-5.933-2.316c-1.421-1.544-2.136-4.131-2.136-7.772V30.539h-4.206
		v-4.807h4.206v-5.279l6.291-1.899v7.177h7.06V30.551z M178.512,50.836c-2.647,2.929-6.168,4.389-10.557,4.389
		c-4.236,0-7.604-1.403-10.116-4.206c-2.512-2.809-3.767-6.348-3.767-10.617c0-4.467,1.298-8.127,3.884-10.972
		c2.593-2.848,6.084-4.272,10.473-4.272c4.23,0,7.628,1.406,10.2,4.212c2.458,2.722,3.68,6.237,3.68,10.551
		C182.31,44.353,181.042,47.991,178.512,50.836z M186.453-13.886h2.067v-2.596l3.091-0.934v3.527h3.464v2.364h-3.464v6.88
		c0,1.751,0.607,2.626,1.833,2.626c0.556,0,1.021-0.06,1.397-0.147l0.087,2.391c-0.61,0.234-1.427,0.352-2.442,0.352
		c-2.482,0-3.966-1.37-3.966-4.957v-7.144h-2.067V-13.886z M201.12,31.2c-2.253,0-3.996,0.847-5.221,2.554
		c-1.064,1.502-1.598,3.401-1.598,5.693v15.127h-6.405v-19.75c0-3.32-0.063-6.348-0.186-9.076h5.579l0.234,5.516h0.177
		c0.679-1.896,1.742-3.425,3.203-4.57c1.427-1.031,2.968-1.544,4.63-1.544c0.592,0,1.127,0.042,1.601,0.117l0.006,6.111
		C202.505,31.26,201.826,31.2,201.12,31.2z M202.589-8.259v8.541h-3.146v-20.67h3.146v8.511h0.063
		c0.991-1.544,2.427-2.304,4.26-2.304c2.998,0,4.831,2.331,4.831,6.036v8.427h-3.146v-8.076c0-2.536-0.958-3.818-2.857-3.818
		C204.109-11.611,202.589-10.503,202.589-8.259z M231.55,41.7h-19.216c0.072,2.848,1.004,5.029,2.788,6.531
		c1.619,1.34,3.713,2.013,6.285,2.013c2.845,0,5.441-0.451,7.775-1.361l1.003,4.443c-2.728,1.19-5.948,1.782-9.665,1.782
		c-4.471,0-7.979-1.316-10.533-3.942c-2.548-2.629-3.824-6.162-3.824-10.587c0-4.344,1.187-7.964,3.563-10.852
		c2.488-3.082,5.849-4.624,10.079-4.624c4.155,0,7.3,1.541,9.437,4.624c1.692,2.442,2.542,5.471,2.542,9.067
		C231.785,39.943,231.71,40.91,231.55,41.7z"/>
	<path fill="#FFFFFF" d="M78.213,30.251c-1.58,0-3.016,0.529-4.305,1.571c-1.286,1.052-2.124,2.425-2.518,4.125
		c-0.195,0.793-0.3,1.439-0.3,1.95v4.81c0,2.094,0.646,3.864,1.926,5.312c1.286,1.439,2.956,2.166,5.017,2.166
		c2.416,0,4.293-0.934,5.633-2.788c1.346-1.86,2.019-4.311,2.019-7.357c0-2.806-0.634-5.119-1.902-6.943
		C82.398,31.2,80.545,30.251,78.213,30.251z"/>
	<path fill="#FFFFFF" d="M8.835-9.923c0-4.576-2.479-7.114-7.144-7.114c-0.991,0-1.836,0.06-2.536,0.204v14.694
		c0.379,0.06,1.106,0.087,2.127,0.087C6.095-2.052,8.835-4.792,8.835-9.923z"/>
	<path fill="#FFFFFF" d="M222.817-12.02c-1.809,0-3.239,1.574-3.443,3.731h6.558C225.932-10.476,224.83-12.02,222.817-12.02z"/>
	<path fill="#FFFFFF" d="M219.332,29.536c-2.094,0-3.8,0.868-5.098,2.611c-1.066,1.385-1.7,3.049-1.896,4.981l13.339,0.006
		c0.045-1.902-0.376-3.539-1.244-4.924C223.325,30.425,221.618,29.536,219.332,29.536z"/>
</g>
</svg>
