<?xml version="1.0" encoding="utf-8"?>
<!-- Generator: Adobe Illustrator 18.1.0, SVG Export Plug-In . SVG Version: 6.00 Build 0)  -->
<svg version="1.1" id="Layer_1" xmlns="http://www.w3.org/2000/svg" xmlns:xlink="http://www.w3.org/1999/xlink" x="0px" y="0px"
	 width="400px" height="118.519px" viewBox="-224 665.6 400 114.8" enable-background="new -224 665.6 400 114.8" xml:space="preserve">
<g>
	<path fill="#FFFFFF" d="M60.7,729.3c-3.4,0-6.7,2.7-8.1,5v10.9c1.4,2.3,4.7,5.1,8.1,5.1c5.5,0,8.6-4.6,8.6-10.6
		C69.3,733.8,66.2,729.3,60.7,729.3z"/>
	<path fill="#FFFFFF" d="M-10.3,729.4c-1.3,0-2.8,0.7-3.7,1.8c-0.9,1.1-1.2,2.5-1.2,3.9c0,3.5,2,9.4,6.5,9.4c1.3,0,2.8-0.7,3.6-1.5
		c1.3-1.3,1.3-2.8,1.3-3.9C-3.7,735.3-6,729.4-10.3,729.4z"/>
	<path fill="#FFFFFF" d="M31.5,733.2c0-2.1-2.3-4.5-5.2-4.5c-2.1,0-6,1.7-6,7.3c0,0.9,0.1,1.8,0.2,2.8l9.6-4.2
		C31,734.3,31.5,734,31.5,733.2z"/>
	<path fill="#FFFFFF" d="M-7.7,752.8c-0.5,0-3.4,0.1-5.5,0.8c-1.2,0.4-4.5,1.7-4.5,5.4s3.6,6.5,9.2,6.5c5,0,7.7-2.4,7.7-5.7
		c0-2.7-1.8-4.1-5.7-7C-7,752.8-7.2,752.8-7.7,752.8z"/>
	<path fill="#FFFFFF" d="M-64.1,728.6c-1.8,0-3.4,0.7-4.7,1.8c-2.1,1.8-2.4,4.2-2.4,6.5c0,5.2,2.6,13.7,9,13.7c2.1,0,4.2-1,5.4-2.7
		c1.3-1.7,1.6-3.8,1.6-5.9C-55.3,737.5-57.5,728.6-64.1,728.6z"/>
	<path fill="#FFFFFF" d="M87.9,741.7c-1.6,1.1-2.3,2.3-2.3,3.9c0,1.4,0.5,2.5,1.5,3.4c1,0.8,2.3,1.3,4.1,1.3c2.3,0,3.9-0.5,5.5-1.5
		s2.8-2.3,3.4-3.9v-4.7h-6.3C91.5,740.1,89.4,740.6,87.9,741.7z"/>
	<path fill="#FFFFFF" d="M-36.1,728.6c-1.8,0-3.5,0.7-4.8,1.8c-2.1,1.8-2.4,4.2-2.4,6.5c0,5.2,2.6,13.7,9,13.7c2.1,0,4.2-1,5.4-2.7
		c1.3-1.7,1.6-3.8,1.6-5.9C-27.3,737.5-29.5,728.6-36.1,728.6z"/>
	<path fill="#FFFFFF" d="M-19.8,696.1c3.4,0,5.5-2.6,5.5-6s-2.2-6-5.5-6s-5.5,2.6-5.5,6C-25.3,693.5-23.2,696.1-19.8,696.1z"/>
	<path fill="#FFFFFF" d="M125.9,665.6h-299c-10.1,0-18.4,8.3-18.4,18.4V762c0,10.2,8.3,18.4,18.4,18.4h299
		c10.1,0,17.7-6.4,17.7-16.5V684C143.5,673.8,136,665.6,125.9,665.6z M-7.8,681.8h3l8.5,11.6v-11.6h2.9v16.7H3.8l-8.7-11.9v11.9
		h-2.9L-7.8,681.8L-7.8,681.8z M-19.8,681.5c4.9,0,8.5,3.6,8.5,8.6c0,5-3.5,8.6-8.5,8.6s-8.5-3.6-8.5-8.6
		C-28.3,685.1-24.8,681.5-19.8,681.5z M-50.7,681.8h13v2.6h-5v14.1h-2.9v-14.1h-5V681.8z M-56.8,681.8h2.9v16.7h-2.9V681.8z
		 M-79.9,681.8h13v2.6h-5v14.1h-2.9v-14.1h-5V681.8z M-94.3,681.8h11.4v2.6h-8.5v4.3h8.3v2.6h-8.3v4.6h8.5v2.6h-11.4V681.8z
		 M-104.8,681.5c3.3,0,5.4,1.5,6.7,3.4l-2.3,1.3c-0.9-1.3-2.5-2.2-4.4-2.2c-3.3,0-5.8,2.5-5.8,6c0,3.4,2.4,6,5.8,6
		c1.7,0,3.2-0.8,3.9-1.5v-2.6h-5v-2.6h7.9v6.2c-1.6,1.8-3.9,3-6.9,3c-4.9,0-8.7-3.4-8.7-8.6C-113.5,684.9-109.6,681.5-104.8,681.5z
		 M-128.4,740.8l-11.4,6.3l0,0l0,0l-33.3,18.3c-0.9,0.5-1.8,0.7-2.6,0.4l0,0c-1-0.3-1.6-1.3-1.6-2.8v-48.8c0-1.5,0.7-2.6,1.7-2.9
		l0,0l0,0c0.7-0.3,1.6-0.1,2.5,0.4l33.3,18.3l0,0l11.4,6.3C-126.1,737.4-126.1,739.5-128.4,740.8z M-79,741.2
		c-0.3,0.3-0.4,0.4-0.5,0.8c-0.1,0.4-0.1,1.8-0.1,2.3v6l0,0l0,0l0,0l0,0l-7,1.6c-2.8,0.4-5.4,0.8-8.1,0.8
		c-13.6,0-18.8-10.1-18.8-17.8c0-9.6,7.4-18.4,19.9-18.4c2.7,0,5.2,0.4,7.5,1c3.7,1,5.4,2.3,6.5,3.1l-4.1,3.9l-1.8,0.4l1.3-1.9
		c-1.7-1.6-4.7-4.6-10.6-4.6c-7.8,0-13.7,5.9-13.7,14.6c0,9.3,6.7,18,17.4,18c3.2,0,4.8-0.7,6.3-1.3v-8l-7.5,0.4l3.9-2.1h10.5
		L-79,741.2z M-63.5,752.2c-8.4,0-12.8-6.5-12.8-12.4c0-6.9,5.6-12.8,13.7-12.8c7.7,0,12.6,6,12.6,12.4
		C-50.1,745.6-54.8,752.2-63.5,752.2z M-35.5,752.2c-8.4,0-12.8-6.5-12.8-12.4c0-6.9,5.6-12.8,13.7-12.8c7.7,0,12.6,6,12.6,12.4
		C-22.1,745.6-26.8,752.2-35.5,752.2z M0.9,736.7c0,3.9-2.2,5.7-4.4,7.5c-0.7,0.7-1.5,1.4-1.5,2.6s0.8,1.8,1.3,2.3l1.9,1.4
		c2.3,1.9,4.4,3.8,4.4,7.4c0,4.9-4.8,10-13.8,10c-7.6,0-11.3-3.6-11.3-7.5c0-1.9,0.9-4.6,4-6.5c3.3-2,7.7-2.3,10.1-2.4
		c-0.8-0.9-1.6-1.9-1.6-3.6c0-0.9,0.3-1.4,0.5-2.1c-0.6,0.1-1.2,0.1-1.7,0.1c-5.6,0-8.7-4.2-8.7-8.3c0-2.4,1.1-5.1,3.4-7
		c3-2.4,6.6-2.9,9.4-2.9H3.6l-3.4,1.9H-3C-1.6,730.5,0.9,732.6,0.9,736.7z M14.4,751.5H5.1c1.3-1.6,1.4-1.8,1.4-2.8v-1.2v-31.3H2.4
		l3.9-1.9h7.5c-1.6,0.9-2.1,1.5-2.3,3.4v29.8c0,2,0.3,2.3,2.1,2.5c0.9,0.1,1.8,0.2,2.7,0.3L14.4,751.5z M37.4,748l-2.5,2.3
		c-0.6,0.3-1.2,0.7-1.8,0.9c-1.8,0.8-3.5,1-5.1,1c-1.7,0-4.4-0.1-7-2.1c-3.8-2.6-5.4-7.1-5.4-11.1c0-8.1,6.6-12.1,12.1-12.1
		c1.9,0,3.9,0.5,5.4,1.5c2.6,1.8,3.4,4,3.7,5.2l-12.4,5l-4,0.3c1.3,6.7,5.9,10.6,10.8,10.6c2.5,0,4.4-0.8,6-1.7
		C37.3,747.9,37.7,747.7,37.4,748z M61.1,752.7c-3.4,0-6.6-1.8-8.5-4.6v13.4h-2.7v-34h2.7v3.9c1.8-2.5,4.9-4.5,8.5-4.5
		c6.6,0,11.1,5,11.1,12.9S67.7,752.7,61.1,752.7z M78.5,752.2h-2.7v-34.1h2.7V752.2z M100.6,752.1c-0.2-0.8-0.3-1.6-0.4-2.3
		c-0.1-0.6-0.1-1.3-0.1-1.9c-0.9,1.3-2.2,2.4-3.9,3.4c-1.7,0.9-3.2,1.3-5.4,1.3c-2.6,0-4.6-0.7-6-1.9c-1.4-1.3-2.2-3-2.2-5.3
		c0-2.2,1-4,3.1-5.4c2.1-1.3,4.8-2.1,8.1-2.1h6.2v-3.1c0-1.8-0.6-3.2-1.8-4.2c-1.2-1-2.9-1.5-5.1-1.5c-2,0-3.6,0.5-4.9,1.3
		c-1.3,0.9-1.8,2.1-1.8,3.4h-2.8l-0.1-0.2c-0.1-1.8,0.8-3.5,2.6-4.9c1.8-1.4,4.2-2.1,7.1-2.1s5.3,0.7,7,2.1c1.8,1.3,2.7,3.4,2.7,5.9
		v12.1c0,0.8,0,1.8,0.2,2.5c0.1,0.8,0.3,1.7,0.5,2.4L100.6,752.1z M116.8,757.6c-1.3,3.1-3.4,4.6-6.3,4.6c-0.8,0-2-0.2-2.7-0.3
		l0.4-2.4c0.6,0.3,1.5,0.4,2.2,0.4c1.6,0,2.8-0.7,3.8-3l1.9-4.4l-10.4-25h2.9l9,21.5l9-21.5h3L116.8,757.6z"/>
</g>
</svg>
